<svg xmlns="http://www.w3.org/2000/svg" viewBox="0 0 24 24" width="24" height="24">
  <path fill="#E34F26" d="M1.5 0h21l-1.91 21.563L11.977 24l-8.564-2.438L1.5 0zm7.032 9.75l-.232-2.718 10.059.003.23-2.622-13.527.007.332-3.823 13.787.007.432-5.083-13.79-.019-.331 3.833 13.49 2.683.098.691.044.268.044.268 2.698-.735L13.49 9.75H8.532z"/>
  <path fill="#EF652A" d="M11.977 24V19.82l7.973-2.226L21.5 0H11.977v9.75h4.958l-.331 3.823-4.627 1.232v.002l-.008.002-4.613-1.232-.331-3.823H3.823l.662 7.676 7.492 2.193z"/>
</svg>
