<svg xmlns="http://www.w3.org/2000/svg" viewBox="0 0 24 24" width="24" height="24">
  <path fill="#F7DF1E" d="M0 0h24v24H0V0zm22.034 18.276c-.175-1.095-.888-2.015-3.003-2.873-.736-.345-1.554-.585-1.797-1.14-.091-.33-.105-.51-.046-.705.15-.646.915-.84 1.515-.66.39.12.75.42.976.9 1.034-1.096 2.87-1.096 2.87-1.096s-1.846.066-2.409.486-.915.795-.915 1.5c0 .945.915 1.5 2.34 2.409 1.53 1.02 1.875 1.875 1.875 2.55 0 1.395-1.875 2.34-3.75 2.34-1.305 0-2.16-.345-2.775-1.005-.27-.285-.435-.66-.435-1.005 0-.6.435-1.155 1.095-1.56.735-.465 2.22-.66 2.22-.66s-2.16.12-3.15.915c-.975.795-1.23 1.86-1.23 2.55 0 1.53 1.23 3.075 4.44 3.075 2.655 0 4.125-1.395 4.44-2.79.09-.51.045-1.02-.105-1.5z"/>
  <path fill="#323330" d="M6.735 20.445c-1.305.51-2.775.795-4.44.795-2.655 0-4.125-1.395-4.44-2.79.09-.51.045-1.02-.105-1.5.175-1.095.888-2.015 3.003-2.873.736-.345 1.554-.585 1.797-1.14.091-.33.105-.51.046-.705-.15-.646-.915-.84-1.515-.66-.39.12-.75.42-.976.9-1.034-1.096-2.87-1.096-2.87s1.846.066 2.409.486c.915.795 1.23 1.5 1.23 2.55 0 .945-.915 1.5-2.34 2.409-1.53 1.02-1.875 1.875-1.875 2.55 0 1.395 1.875 2.34 3.75 2.34 1.305 0 2.16-.345 2.775-1.005.27-.285.435-.66.435-1.005 0-.6-.435-1.155-1.095-1.56-.735-.465-2.22-.66-2.22-.66s2.16.12 3.15.915c.975.795 1.23 1.86 1.23 2.55 0 1.53-1.23 3.075-4.44 3.075z"/>
</svg>
